<?xml version="1.0" standalone="no"?>
<!DOCTYPE svg PUBLIC "-//W3C//DTD SVG 20010904//EN"
 "http://www.w3.org/TR/2001/REC-SVG-20010904/DTD/svg10.dtd">
<svg version="1.0" xmlns="http://www.w3.org/2000/svg"
 width="70.000000pt" height="60.000000pt" viewBox="0 0 70.000000 60.000000"
 preserveAspectRatio="xMidYMid meet">

<g transform="translate(0.000000,60.000000) scale(0.100000,-0.100000)"
fill="#000000" stroke="none">
<path d="M167 538 c-10 -8 -26 -55 -42 -124 -13 -62 -27 -119 -31 -127 -4 -13
1 -14 34 -10 51 7 79 -8 177 -97 111 -100 145 -121 195 -122 55 -1 86 29 98
97 12 70 -12 175 -39 168 -35 -10 -86 19 -169 93 -92 83 -165 134 -190 134 -9
0 -24 -6 -33 -12z"/>
</g>
</svg>
